<?xml version="1.0" encoding="utf-8"?>
<!-- Generator: Adobe Illustrator 28.0.0, SVG Export Plug-In . SVG Version: 6.00 Build 0)  -->
<svg version="1.1" id="Layer_1" xmlns="http://www.w3.org/2000/svg" xmlns:xlink="http://www.w3.org/1999/xlink" x="0px" y="0px"
	 viewBox="0 0 540 94.7" style="enable-background:new 0 0 540 94.7;" xml:space="preserve">
<style type="text/css">
	.st0{fill:#255988;}
	.st1{fill:#2E6FAA;}
	.st2{fill:#E57B2B;}
	.st3{fill:#472D85;}
	.st4{fill:#D7AC62;}
	.st5{fill:#2480C1;}
	.st6{fill:#384684;}
	.st7{fill:#8C3437;}
	.st8{fill:#BB2136;}
	.st9{fill:#2D3756;}
	.st10{fill:#496D8F;}
</style>
<g>
	<g>
		<path class="st0" d="M29.8,74.1c11.3,0.3,22.7-0.2,34-0.5c0.2-0.4,0.5-0.5,0.8-0.6l0-0.1c0.1-0.1,0.2-0.2,0.3-0.2
			c0.1,0,0.1,0,0.2,0c0.5-1,1.3-2,1.6-3.1c1-3.8,1.8-7.6,2.7-11.4c0.2-0.6,0.4-1.2-0.2-1.8c-0.6-0.7-1,0.3-1.6,0.2
			c-0.1,0-0.2,0-0.3,0.1c-0.1,0.1-0.2,0.2-0.4,0.3c0.5,0.8-1,0.7-0.6,1.1c1.6,1.9,0.4,3.8,0.2,5.7c-0.2,2-1.3,3.7-2.1,5.5
			c-1.2,2.7-3.3,1.7-5.2,2c-4.7,0.6-9.4-0.2-14.1-0.5c-1.4-0.1-2.6,1-4,0.2c-0.7,0.4-1.4,0.8-2.1,1.2c0.1,0.4,0.3,0.6,0.5,0.6
			c-0.3-0.1-0.6-0.1-0.8,0c-0.2,0-0.4,0-0.6,0c-2.3-0.4-4.6-0.4-6.8,0.1c-0.2,0-0.4,0-0.6,0c-1.4-0.2-2.8-0.4-4.3-0.4
			c-0.4,0-1.7-0.3-1,1.1C27,73.7,28.4,74.1,29.8,74.1z M51.4,72.8c0.1,0,0.3,0,0.4,0C51.7,72.8,51.5,72.8,51.4,72.8
			c-0.9,0-1.9,0-2.8,0C49.5,72.8,50.4,72.8,51.4,72.8z M44.6,72.5c0.4,0.1,0.9,0.1,1.3,0.1c-1.3-0.1-2.5-0.1-3.8-0.1
			C43,72.5,43.8,72.4,44.6,72.5z M40.3,72.7c-0.1,0-0.2,0-0.2,0c-0.1,0-0.2,0-0.2,0C40,72.7,40.2,72.7,40.3,72.7z"/>
		<path class="st0" d="M82.1,51.3c0-0.1,0-0.3,0-0.4c-0.3-1.4-0.8-1.6-2.1-0.8c-1.5,1-2.2,2.4-3.2,3.8c-1.8,2.5-2.1,6.7-0.1,9.3
			c0.1-0.1,0.1-0.2,0.2-0.3c0-1,0-2-0.4-2.9c-0.8-2.2-0.1-3.9,1.4-5.4C79.4,53.5,80.8,52.4,82.1,51.3z"/>
		<path class="st0" d="M69,77.7c-4.8,0.6-9.5,1.9-14.5,1.7c-1.6-0.1-3.2,0.5-4.7,0.3c-2.8-0.4-5.7-0.2-8.5,0.1
			c-4.1,0.3-8.2,0.9-12.3,0.9c-1.7,0-3.3,1.2-5.1,0.3c-1.3-0.6-2.9-0.3-4.4,0.1c-0.3,0.8,0.2,1.2,0.7,1.7c0.1,0.1,0.2,0.2,0.2,0.3
			c1.2,0.7,2.4,0.2,3.7,0.3c0.1,0,0.2,0,0.3,0c0.1,0.3,0.8,0,0.8,0.5c0.2,0.1,0.3,0.3,0.5,0.4c0.2,0.2,0.5,0.3,0.8,0.3
			c1.2-0.2,2.4-0.3,3.5-0.2c6.4,0.3,12.9,0.1,19.3,0.2c2.2,0,4.4-0.4,6.6-0.2c1.7,0.2,3.3-0.2,4.9-0.3c1.6-0.3,3.1-0.6,4.7,0
			c0.2-0.1,0.4-0.3,0.6-0.4c0,0,0,0,0,0c0,0,0,0,0,0c0.6,0,1.2,0,1.7,0c-0.3-0.6,0-0.9,0.6-1.1c1.1-0.3,1.6-1.2,2.3-2
			c1-1-0.2-1.8-0.4-2.7C70.2,77.1,69.5,77.6,69,77.7z"/>
	</g>
	<path class="st1" d="M73,40.7c-0.1,0.7-0.5,0.9-1.1,0.9c0.2-0.3,0.4-0.6,0.6-0.9C72.6,40.7,72.8,40.7,73,40.7z"/>
	<path class="st2" d="M82.1,50.9C82.1,50.9,82.2,50.9,82.1,50.9c0,0.1,0,0.3,0,0.4c0,0,0,0,0,0C82,51.2,82,51,82.1,50.9z"/>
	<g>
		<path class="st3" d="M74.7,21.2c0.4-2.4,0.2-4.7-1.5-6.6c-2.6-2.8-5.7-1.8-8.8-1.1c-0.2,0.1-0.4,0.1-0.6,0.2c-0.1,0-0.2,0-0.3,0.1
			c-0.2,0.2-0.4,0.1-0.6,0.2c0,0,0,0.1,0,0.1c0,0,0,0,0,0c0,0,0,0,0,0c-0.1,0-0.2,0-0.3,0c0,0,0,0,0,0c0,0,0,0,0,0c0,0,0,0,0,0
			c-5.6,1.6-11.1,1.4-16.5-0.5c0,0.2-0.1,0.4-0.1,0.5c0,0,0,0-0.1,0c-1,0.5-1.7,1.3-1.8,2.5c-0.4,2-0.6,4-0.2,6.1
			c0.2,1.2,0.7,2.2,0.9,3.4c0.6,3.2,1.7,6.2,1.9,9.4c0.1,2.1,0.4,4.2,1.3,6.2c0.1,0.4,0.2,0.8,0.3,1.1c-0.2,0.8,0.4,1.3,0.9,1.8
			c2.3,2.3,5.2,3.4,8.3,4c0.9,0.2,1.7,0,2.6-0.3c1.6-0.5,3.3-1,4.9-1.5c0.3-0.1,0.7-0.2,0.9-0.5c1-1.7,2.6-2.5,4.4-3.2
			c0.6-0.2,1-0.7,1.4-1.1c0.1-0.1,0.2-0.2,0.3-0.3c0.2-0.3,0.4-0.6,0.4-1c0-0.2-0.1-0.4-0.1-0.7c0-0.1-0.1-0.3-0.1-0.4
			c0.1,0.1,0.2,0.3,0.1,0.4c0-0.9,0-1.7,0-2.6v0c0,0,0,0,0,0h0c0-0.7-0.2-1.5-0.1-2.1C73,30.6,73.9,25.9,74.7,21.2z"/>
		<path class="st3" d="M19.6,81c-0.4-0.6-1.1-0.8-1.7-1.2c-1.3-1.2-2.4-2.6-3.3-4.2c-1.7-3-3.3-6.1-4.3-9.4c-0.2-0.5-0.3-1.1-1-1
			c0.2,3.1,1.7,5.8,2.8,8.6c0.6,1.5,1.7,2.7,2.2,4.2c0.5,1.8,4.1,4.8,5.9,4.6C20,82.1,19.8,81.6,19.6,81L19.6,81z"/>
	</g>
	<path class="st4" d="M64.7,83.2c-1.2,0-2.5-0.3-3.7,0.3c-0.2,0.1-0.3,0.2-0.5,0.4c-0.6-0.1-1.2-0.2-1.8-0.2
		c-8.5,0.7-16.9,0.5-25.4,0.3c-2.3-0.1-4.7-0.5-7,0.2l0,0c-0.1,0-0.3,0-0.4,0c0-0.1,0-0.2,0-0.3c-0.2-0.4-0.6-0.6-1-0.6
		c-0.1,0-0.2,0-0.3,0c-0.1-0.1-0.1-0.1-0.2-0.2c-1.3,0-2.6-0.1-3.9-0.1c-1,0.1-0.2,0.5-0.1,0.8c0,0,0,0,0,0c0,0,0,0,0,0
		c0.5,0.2,0.4,0.6,0.5,1c1,2.7,1,5.7,2.3,8.4c0.6,0,1.2,0,1.8,0c1.2-1.8,1.5-3.8,1.5-5.9v0c0.6-0.7,0.5-1.6,0.7-2.4h0c0,0,0,0,0,0
		c1.6,0,0.6,1.3,0.9,1.9c0.3,0.8,0,2,1.3,2.2c1.2,0.1,1.2-1,1.7-1.7c0.6-0.8,0.2-2.4,1.9-2.4c7.1-0.1,14.3-0.2,21.4-0.3
		c1.5,0,2.3,0.3,2.7,1.9c0.3,1.1,0.8,2.6,2.6,1.6c0,0,0.1,0,0.1-0.1c0-0.1,0-0.1-0.1-0.2c0-0.1,0-0.1,0-0.2c0.3-0.3,0.6-0.6,0.8-0.9
		v0c1.3,2,1,4.4,1.5,6.5c0.7,0,1.4,0,2.1,0c0.5-3,1-6.1,1.5-9.1C65.6,83.4,65.1,83.2,64.7,83.2z"/>
	<path class="st4" d="M67,56.7c-1.4,0-2.8,0-4.3,0c-2.6-0.7-5.2-0.3-7.8,0c-4.1,0.3-8.3,0.7-12.4,0.5c-0.2,0-0.3,0.1-0.4,0.1
		c-0.7-0.4-1.6-0.6-1.9-1.5c1.3-0.2,2.7,0.3,3.9-0.3c1.8-0.4,3.6-0.3,5.4-0.6c3.4-0.4,6.7-1.1,10.1-1.3c1-0.1,2.1-0.1,3.1,0
		c0.8,0.1,1.5,0.6,2.3,0.8c0.2,0.1,0.4,0.1,0.6,0.2c0.1,0.1,0.2,0.1,0.3,0.2c0.1,0.1,0.1,0.2,0.2,0.3l0,0c0.4,0.2,0.6,0.5,0.9,0.9
		l0,0c0.1,0.1,0.1,0.2,0.1,0.3C67.2,56.5,67.1,56.6,67,56.7z"/>
	<path class="st5" d="M38.3,72.7c-2.3,0.4-4.5,0.2-6.8,0.1c-0.2-0.2-0.4-0.4-0.6-0.6c0.3-0.1,0.5-0.1,0.8-0.2
		c1.8-0.2,3.7-0.4,5.5-0.6C38.2,71.3,38.6,71.7,38.3,72.7z"/>
	<path class="st5" d="M19.6,81c-0.8,0-1.3-0.6-1.7-1.2C18.7,79.8,19.7,79.7,19.6,81z"/>
	<path class="st5" d="M39.8,72.9c-0.3-0.1-0.6-0.1-0.9-0.2c0.1-0.2,0.2-0.4,0.3-0.6c0.5,0.1,1,0.2,1.4,0.3
		C40.7,73.1,40.2,72.9,39.8,72.9z"/>
	<path class="st6" d="M63.8,73.6c-0.1-0.8,0.2-1,0.8-0.6C64.4,73.2,64.1,73.4,63.8,73.6z"/>
	<path class="st7" d="M20.2,37.5c0.4-0.1,0.6,0.2,0.6,0.5C20.4,38,20.2,37.9,20.2,37.5z"/>
	<path class="st6" d="M64.7,73c0.1-0.1,0.2-0.2,0.3-0.2C64.9,72.8,64.8,72.9,64.7,73z"/>
	<path class="st7" d="M20.8,38c0.1,0.1,0.2,0.2,0.3,0.3C20.9,38.2,20.9,38.1,20.8,38z"/>
	<path class="st7" d="M19.4,8.3C19.9,6.1,21,5,23.4,5.9C23.8,6,24.3,6,24.7,6c5.8-1.1,9.2,2.4,12.2,6.5c0.2,0.3,0.7,0.6,1,0.5
		c1.3-0.5,1.4,0.5,1.6,1.3c-1.8,4.5-5.7,6.6-9.8,8.5c-2,0.9-4.1,1.2-6.1,1.2c-2.2,0-2.4-1.9-2.8-3.6C19.8,16.4,19.9,12.3,19.4,8.3z"
		/>
	<path class="st8" d="M48.2,41.4c-0.1-0.1-0.2-0.2-0.3-0.2c-0.5-3.1-1-6.3-1.5-9.4c-0.8-4.9-3-9.5-2.3-14.6c0.1-0.2,0.1-0.4,0.1-0.6
		c0,0,0,0,0,0c0,0,0,0,0,0c0.2-1.1,1-1.7,1.7-2.4c0.3-0.2,0.3-0.4,0.1-0.6c-4.5-2.2-8.8-4.7-12.4-8.2c-2.5-2.4-5.5-4.1-8.9-3.7
		c-6.1,0.7-8.4,3.6-8.4,9.8c0,6.4,1.9,12.5,2.7,18.8c0.3,2.2-0.1,4.4,0.8,6.5l0,0c0,0.2,0.1,0.4,0.1,0.6c0.1,0,0.1,0,0.2,0.1
		c0.2,0.1,0.4,0.3,0.6,0.5l0,0c0.1,0.1,0.2,0.1,0.3,0.3c0.6,0.8,0.5,1.8,0.6,2.7c0.4,0.7,0.3,1.6,1.1,2.1c0.5,0.3,0.9,0.7,1.2,1.3
		c0.9,1.7,1.4,3.6,1.7,5.5c0.2,1.1,0.1,2.3,0.6,3.3c0.5,0.3,1-0.1,1.5,0.3c4.2,0.4,8.3,1.1,12.3,2.4c1.3,0.5,2.6,0.7,3.9,0
		c1.5-2.2,2.4-4.6,3-7.1c0.5-2,0.7-4.1,1.5-5.9C48.7,42.2,48.5,41.8,48.2,41.4z M36.3,18.1c-3.4,3.2-7.3,5-12,5.4
		c-1.7,0.1-2.5-0.4-2.9-2.2c-0.2-1-0.4-1.9-0.5-2.9c-0.4-2.5-1.2-5-0.7-7.6c0.2-0.9,0.1-1.9-0.7-2.6C19.9,8,20,7.5,20.2,7.2
		c0.5-0.8,1.3-1.3,2.2-1c1.4,0.4,2.8,0.2,4.2-0.1c0.5-0.1,1-0.1,1.5,0.1c3.4,1.3,6.3,3.3,8.4,6.4c0.3,0.4,0.6,0.9,1.1,0.8
		c0.9-0.2,1.3,0.6,1.9,1c0,0,0,0,0,0c-0.1,0-0.2,0-0.3,0C38.5,15.7,37.5,16.9,36.3,18.1z"/>
	<path class="st9" d="M67.1,56c-0.3-0.3-0.6-0.6-0.9-0.9c0.2,0,0.4,0,0.6,0C66.8,55.4,66.9,55.7,67.1,56z"/>
	<path class="st9" d="M67.4,56.3c0.1,0.1,0.2,0.2,0.3,0.3c0,0-0.1,0.1-0.1,0.1c-0.1,0-0.3,0-0.3-0.1C67.2,56.4,67.3,56.3,67.4,56.3z
		"/>
	<path class="st9" d="M67.2,56.4c-0.1-0.1-0.1-0.2-0.2-0.3c0.1,0.1,0.2,0.1,0.4,0.2C67.4,56.3,67.4,56.4,67.2,56.4L67.2,56.4z"/>
	<g>
		<path class="st6" d="M20.6,67.7c-1.4-3.3-0.9-6.8-1.5-10.2C18.9,57,19.4,56,18.7,56c-0.8,0-1.1,0.9-1.1,1.7
			c0.2,3.7,0,7.5,2.1,10.9c1.4,2.4,2.6,4.9,5.9,4.9c-0.6-0.8,0.2-0.6,0.5-0.6c1.6,0,3.2,0,4.8-0.1c-1.4-0.7-2.9-0.7-4.4-0.8
			C23.5,71.9,21.7,70.3,20.6,67.7z"/>
		<path class="st6" d="M19.8,54.6c0.4-1,1.5-0.8,2.2-1.2c2,0,3.9,0,5.9,0c-0.4-0.1-0.9-0.2-1.3-0.3c-0.6-0.5-1.3-0.5-2-0.5
			c-1.2,0.1-1.5-0.5-1.5-1.6c0-2,0-4,0-6c0-0.8,0-1.6-0.5-2.3c-0.8-0.3,0.3-1.6-0.9-1.7c-0.5,0.4-0.4,1-0.2,1.4
			c0.9,2,0.4,4.2,0.4,6.3c0,0,0,0,0,0c0,0,0,0,0,0c-0.4-0.3-1.1-0.4-1.1,0c-0.2,2-1.3,3.8-1.6,5.7C19,55,19.7,54.8,19.8,54.6z"/>
		<path class="st6" d="M85.8,42.7c-0.6-0.2-1.1,0.1-1.5,0.4c-0.6,0.5-1.3,0.7-2,0.7c-3.4,0-6.5,1.3-9.5,2.8
			c-1.6,0.8-3.4,1.8-4.1,3.7c-0.6,1.6-1.3,3.1-2.1,4.5c-0.1,0.4,0,0.7,0.1,1.1c0.1,0.1,0.2,0.3,0.3,0.4c0.1,0.1,0.2,0.2,0.3,0.3
			c0.2,0.1,0.4,0.2,0.6,0.2c1.1-0.2,1.1,0.4,1.1,1.3c-0.1,2.5-1.3,4.6-1.8,6.9c-0.4,2.2-0.6,4.4-1.9,6.3c-0.2,0.4-0.3,0.8-0.1,1.3
			c5-0.3,9.2-2,12.1-6.3c0.6-1.1,0.2-2.1-0.2-3.1c-1.8-3.1-2.4-6.1,0.1-9.2c0.2-0.2,0.3-0.5,0.4-0.8c0.3-1.6,1.6-2.1,2.7-2.9
			c0.5-0.4,0.9-0.1,1.3,0.3c0.1,0.1,0.4,0,0.4,0.2c0.3-0.5,0.7-1,1-1.6C84.1,47.1,86.5,45.5,85.8,42.7z"/>
		<path class="st6" d="M67.2,56.7c-0.1-0.1-0.2-0.2-0.4-0.3c-1.4-0.4-2.9-0.2-4.4-0.1c-0.5,0.1-0.9,0.2-1.4,0.3
			c-5.2,0.2-10.4,0.8-15.6,0.8c-0.8,0-1.7-0.2-2.3,0.6c0.2,0.3,0.3,0.6,0.5,0.9c4.3,5.5,2.4,8.1-2.3,12.1c0,0.9,0.7,0.7,1.2,0.6
			c2.1-0.5,4.1-0.1,6.2,0c2.8,0.1,5.7,0.5,8.5,0.4c1.5,0,3-0.3,4.6-0.1c0.9,0.1,1.8-0.3,2.4-1c1-1.2,1.9-2.5,2.5-4
			C67.7,63.5,68.1,60.2,67.2,56.7z"/>
		<path class="st6" d="M65.8,54.9L65.8,54.9c0.2,0.1,0.2,0,0.3,0c-0.5-1.9-1.6-3.6-1.4-5.7c-1.1,1.4-1.1,3.2-1.4,4.8
			c0.6,0.3,1.3,0.5,1.9,0.8C65.4,54.8,65.7,54.6,65.8,54.9z"/>
	</g>
	<path class="st7" d="M65.8,55c0.1,0,0.2-0.1,0.3-0.1c0,0.1,0,0.2,0,0.3C66,55.1,65.9,55.1,65.8,55z"/>
	<g>
		<path class="st2" d="M81.9,51.3c-1.9,0.6-3.2,1.9-4.3,3.4c0,0,0,0.1-0.1,0.1c-0.7,0.4-0.9,1.2-1.2,1.8c-0.8,1.9,0,3.6,0.5,5.4
			c0,0.2,0,0.5-0.1,0.7c0,0.2,0,0.3,0.1,0.4c0.2,1.1,0.4,2.1,0.6,3.2c0,0.2,0.1,0.4,0.1,0.6c1.6-5.2,2.4-10.6,4.7-15.6
			C82.1,51.3,82,51.3,81.9,51.3z"/>
		<path class="st2" d="M60.1,55.8c-5.7,0.1-11.4,1.1-17.1,0.9c-0.4,0-0.8,0.1-0.9,0.6c0.3,0.2,0.6,0.4,0.9,0.7
			c3.5-0.1,7.1,0,10.5-0.4c3-0.4,6.2,0.3,9.1-0.8C62.1,55.7,61,55.8,60.1,55.8z"/>
		<path class="st2" d="M48.4,42.7c-0.2,0.2-0.6,0.4-0.7,0.7c-0.7,4.1-1.8,8.2-3.6,12c1.3,0.7,2.6,0.5,3.9,0.3
			c5-0.7,10.1-1.8,15.2-1.7c0.5-0.4,0.5-1.1,0.8-1.7c0.4-1,0.2-2.1,0.7-3.1c0.2-1,0.4-2,0.6-3c-2.2,0.6-4.4,1.7-6.6,1.7
			C54.5,48,51,46.2,48.4,42.7z"/>
		<path class="st2" d="M22.6,42.7c0,3.3-0.1,6.6-0.1,9.9c0,0.5,0.3,0.7,0.8,0.6c1.1-0.1,2.1-0.1,3.2-0.2c-0.4-2.1-0.5-4.2-1.1-6.2
			C25,45.3,24.8,43.3,22.6,42.7z"/>
	</g>
	<path class="st10" d="M67.2,56.4C67.2,56.4,67.3,56.4,67.2,56.4c0.2,0.1,0.3,0.2,0.4,0.3c-0.2,0.1-0.3,0.2-0.5,0.3
		c0-0.1,0-0.2-0.1-0.3C67.1,56.6,67.2,56.5,67.2,56.4z"/>
	<g>
		<path class="st5" d="M84.8,40.3c-0.4-1.4-1.6-1.7-2.8-2c-3.4-0.6-6.2,1-9,2.4c-0.4,0.3-0.8,0.6-1.1,0.9c0,0-0.1,0-0.1,0
			c0,0,0,0,0,0c0,0,0,0,0,0c-2.1,1.6-4.9,2.3-6.5,4.6c-0.9,0.8-1,1.9-1.1,3c-0.1,2,0.7,3.7,1.5,5.4c0.1,0.1,0.1,0.2,0.2,0.4
			c0.1,0.1,0.2,0.2,0.3,0.3c0.2,0,0.4,0,0.5-0.2c0.3-0.4,0.7-0.5,0.8-1.1c0.6-1.6,1.1-3.3,2.2-4.5c2.4-2.6,5.8-3.8,9.1-4.7
			c2.3-0.7,5-0.1,6.9-2.1C85.9,41.7,85.7,40.9,84.8,40.3z"/>
		<path class="st5" d="M77.2,66.4c-1.1,0.6-1.5,1.8-2.5,2.5c-2.8,1.9-5.8,3.3-9.2,3.5c-0.1,0-0.3,0.1-0.4,0.1
			c-0.1,0.1-0.3,0.1-0.4,0.2c-0.1,0.1-0.2,0.2-0.3,0.2c-0.4,0.4-0.8,0.3-1.2,0.2c-2.5-0.2-4.9,0.2-7.3,0.3
			c-4.2,0.2-8.4,0.1-12.5,0.2c-5.8,0.2-11.6,0.5-17.4-0.4c-1.6-0.2-3.2-0.5-4.2-1.9c-1.8-2.7-3.5-5.5-3.5-8.9c0-1.6-0.4-3.1-0.2-4.7
			c0-0.2,0-0.6,0.4-0.5c0.2,0,0.1,0.3,0.2,0.5c0.5,2.2,0.3,4.4,0.5,6.6c0.5,4,2.9,8.6,8.5,8.3c1.1-0.1,2.2,0.3,3.3,0.6
			c0.2,0,0.4,0,0.6-0.2c0.1-0.2,0.1-0.5-0.1-0.7c0,0-0.3-0.1,0,0c1.7,0.6,3.2-0.2,4.8-0.3c0.7-0.1,1.5-0.1,1.9,0.7
			c0.2,0.2,0.4,0.2,0.6,0.2c0.3,0,0.5-0.3,0.7-0.4c0.7-0.4,1.4-0.9,2.2-1.2c1.8-1.4,3.2-3.1,4.3-5c0.7-1.2,0.7-2.5,0.2-3.9
			c-0.6-1.7-1.5-3.2-2.7-4.5c-0.3-0.4-0.6-0.7-1-0.9c-0.7-0.5-1.4-1.1-2.1-1.6c-0.8-0.4-1.8-0.5-2.7-0.8c-3.1-1.2-6.4-1.3-9.7-1.6
			c-1.8,0-3.7,0-5.5,0c-0.7,0.1-1.5,0.2-2.1,0.6C20,53.7,19.9,54,20,53.4c0.4-1.9,0.8-3.7,2.3-5c0.2-0.5,0.1-1.1,0.1-1.6
			c0.2-1.8-0.3-3.6-0.6-5.4c0.1-1,0.3-2.1-0.4-3c-0.1-0.2-0.2-0.3-0.4-0.5c-0.1-0.1-0.2-0.2-0.3-0.3c-0.1-0.1-0.3-0.2-0.5-0.3
			c-0.1-0.1-0.2,0-0.3,0.1c-0.6-0.1-1.2-0.2-1.8-0.3c-2.3-1.4-6.5-0.8-8.4,1.3C5.5,44.2,8.5,57,8.4,60.6c-0.3,1.6,0.4,3.1,0.9,4.6
			c0.5,0.6,0.7,1.4,1,2.1c0.8,2.3,1.8,4.6,3,6.7c0.4,0.7,1,1.3,1.2,2c0.5,1.9,1.9,2.9,3.2,4c0.8,0.1,1.5,0.4,1.9,1
			c0.1,0.1,0.3,0.1,0.4,0.1c1.2,0.2,2.5-0.3,3.6,0c1.4,0.3,2.6,0.8,4,0c0.3-0.2,0.7-0.1,1-0.1c1.5-0.3,3,0.1,4.4,0
			c2.4-0.2,4.8-0.2,7.2-0.9c1.7-0.4,3.5,0.2,5.1,0c2.5-0.3,5,0.1,7.5-0.3c2.8-0.4,5.6,0.3,8.4-0.4c2.5-0.6,5-0.8,7.4-1.3
			c0.6-0.1,1.2-0.2,1.5,0.5c0.4,0.7,0.4,1.3-0.1,1.9c-0.5,0.7-1.2,1.2-1.9,1.6c-0.6,0.3-1,0.7-0.3,1.4c1.7-0.5,2.9-1.5,4-2.9
			c3.1-4,4.6-8.8,5.6-13.7C77.5,66.7,77.7,66.4,77.2,66.4z"/>
		<path class="st5" d="M40.7,72.4c-0.3,0.2-0.6,0.3-0.9,0.5c0.4,0.5,0.9,0.4,1.3,0.3c2.2-0.4,4.4-0.2,6.6,0c1.8,0.2,3.5,0.1,5.3,0
			c0.3,0,0.6-0.3,0.8-0.4c-0.2-0.1-0.5-0.4-0.7-0.3C49,72.7,44.8,71.7,40.7,72.4z"/>
	</g>
	<path class="st7" d="M65.2,54.8c0.3-0.1,0.5-0.2,0.6,0.2C65.6,54.9,65.4,54.8,65.2,54.8z"/>
	<path class="st2" d="M89.2,32.6h51.3l-1.2,15c-5.9-1.9-15.2-2.9-21.9-2.9c-5.3,0-6.9,1.1-6.9,3.3c0,1.7,1.3,2.6,3.4,2.6
		c3.3,0,14.1-1.5,21.2-1.5v11.6c-8,0-18.2-1.2-21.7-1.2c-1.8,0-2.8,1-2.8,2.6c0,2.1,1.5,3.1,7.7,3.1c5.9,0,15.6-1,22.3-2.7l1.8,20.3
		c-20.9,0.1-41.8,0.2-62.6,0.2c2.6-18.7,5.6-27.3,8-31.6c1.1-2,4.3-7.1,2.4-10.8c-0.7-1.3-2.1-2.8-2-5
		C88.2,34.4,88.8,33.3,89.2,32.6z"/>
	<path class="st2" d="M174.6,42.9c-3.5,0-4.9,3.8-4.9,9.1c0,7.8,4.4,13.6,16.6,13.6c4.1,0,8.5-0.8,12.4-2.3
		c-1.1,13.4-11.5,21.3-25.4,21.3c-16.5,0-26.3-9.2-26.3-23.4c0-14.3,10.6-23.5,27.1-23.5c14.4,0,23.7,3.9,23.7,13.5
		c0,6.1-5.1,9.5-11.6,9.5c-5.9,0-10.1-3.3-10.1-8.6C176.1,45.6,178.2,42.9,174.6,42.9z"/>
	<path class="st2" d="M230.9,82.9H202c1.7-17.3,1.7-41.3,0-56.1h28.9C229.2,41.6,229.2,65.5,230.9,82.9z"/>
	<path class="st2" d="M272,64.5c5.7,0,12-0.8,17.1-2.3c-1.1,14.2-12.7,22.3-27.4,22.3c-17.3,0-27.6-9.2-27.6-23.4
		c0-14.3,11.1-23.5,28.5-23.5c15.2,0,25.7,6.2,25.7,20.6h-26.9c-2.2,0-3.2,0.7-3.2,2C258.2,62.7,262.9,64.5,272,64.5z M258.2,21.6
		h20.5l-11.3,13.6H252L258.2,21.6z M262.6,54c2.8,0,4.2-2.1,4.2-4.5c0-2.8-1.3-5.3-4.2-5.3s-4,2.5-4,5.3
		C258.6,51.9,259.7,54,262.6,54z"/>
	<path class="st2" d="M320.5,42.9c-3.5,0-4.9,3.8-4.9,9.1c0,7.8,4.4,13.6,16.6,13.6c4.1,0,8.5-0.8,12.4-2.3
		c-1.1,13.4-11.5,21.3-25.4,21.3c-16.5,0-26.3-9.2-26.3-23.4c0-14.3,10.6-23.5,27.1-23.5c14.4,0,23.7,3.9,23.7,13.5
		c0,6.1-5.1,9.5-11.6,9.5c-5.9,0-10.1-3.3-10.1-8.6C322,45.6,324.1,42.9,320.5,42.9z"/>
	<path class="st2" d="M351.6,65.3V59c0-3.3-1-5.5-3.4-5.5V39.3c10.6,0,21.8-5.6,27.3-12.6h1.3v6.6c0,3.9,1.2,5.9,4.3,5.9h6.4v14.1
		h-5.2c-3.1,0-4.3,2-4.3,5.9v1c0,8.2,2.5,13.6,8,13.6c1,0,1.8-0.1,2.8-0.3v0.5c-2.2,4.9-8.4,10.3-18.3,10.3
		C358.8,84.5,351.6,78.2,351.6,65.3z"/>
	<path class="st2" d="M390.7,39.3h28.9c-1.7,14.5-1.7,29,0,43.5h-28.9C392.4,68.4,392.4,53.8,390.7,39.3z M396.2,29.8
		c0-4.7,4.1-7.6,9.5-7.6c5.4,0,9.4,2.9,9.4,7.6c0,3.9-3.6,7-9.4,7C399.9,36.8,396.2,33.7,396.2,29.8z"/>
	<path class="st2" d="M450.4,42.9c-3.5,0-4.9,3.8-4.9,9.1c0,7.8,4.4,13.6,16.6,13.6c4.1,0,8.5-0.8,12.4-2.3
		c-1.1,13.4-11.5,21.3-25.4,21.3c-16.5,0-26.3-9.2-26.3-23.4c0-14.3,10.6-23.5,27.1-23.5c14.4,0,23.7,3.9,23.7,13.5
		c0,6.1-5.1,9.5-11.6,9.5c-5.9,0-10.1-3.3-10.1-8.6C451.9,45.6,454,42.9,450.4,42.9z"/>
	<path class="st2" d="M478.3,61.2c0-13.5,12-23.5,27.1-23.5c15.1,0,27,10,27,23.5c0,13.8-11,23.4-27,23.4
		C489.3,84.5,478.3,75,478.3,61.2z M505.5,57.8c3.1,0,4.6-2.3,4.6-5c0-3-1.5-5.8-4.6-5.8c-3.2,0-4.4,2.8-4.4,5.8
		C501,55.5,502.3,57.8,505.5,57.8z"/>
</g>
</svg>
